<?xml version="1.0"?>
<svg xmlns="http://www.w3.org/2000/svg" id="Layer_1" enable-background="new 0 0 496.001 496.001" height="512px" viewBox="0 0 496.001 496.001" width="512px"><g><path d="m193.089 410.514c-15.508 0-27.349-1.135-33.717-1.926-8.769-1.09-14.995-9.082-13.905-17.851 1.089-8.769 9.08-14.993 17.851-13.905 20.25 2.516 125.148 11.292 201.625-63.335 70.922-69.208 89.442-180.04 47.759-279.184-103.009 22.225-194.351 58.246-258.284 102-61.487 42.082-94.544 88.482-93.083 130.655.75 21.636 11.015 43.889 30.546 66.336 28.565-45.808 63.48-85.279 102.833-118.245 6.773-5.674 16.865-4.783 22.54 1.991s4.783 16.865-1.991 22.54c-74.352 62.285-127.79 145.916-153.28 244.417-1.866 7.21-8.361 11.996-15.479 11.996-10.471 0-18.12-9.891-15.501-20.012 10.381-40.115 25.14-78.099 44.091-113.619-142.755-149.713 70.315-306.535 343.78-362.055 7.187-1.458 14.518 2.217 17.65 8.847 85.939 181.934-17.498 401.343-243.435 401.35zm185.537-166.922c14.48-24.564 24.992-51.56 31.243-80.239 1.882-8.634-3.592-17.159-12.226-19.041-8.627-1.884-17.158 3.592-19.04 12.225-5.526 25.352-14.793 49.173-27.544 70.804-4.487 7.612-1.954 17.421 5.658 21.909 7.604 4.483 17.417 1.962 21.909-5.658z" data-original="#000000" class="active-path" data-old_color="#000000" fill="#FFFFFF"/></g> </svg>
